<svg width="269" height="40" viewBox="0 0 269 40" fill="none" xmlns="http://www.w3.org/2000/svg">
<path d="M10.6085 6.73798C16.3863 6.73798 21.0275 11.0695 21.0275 16.9412C21.0275 22.7166 16.2915 27.1444 10.8926 27.1444C8.33521 27.1444 5.87254 26.3743 4.07289 24.2567H3.88345V39.0802H0V18.4813C0 11.3583 4.07289 6.73798 10.6085 6.73798ZM10.5137 23.6792C14.3025 23.6792 16.9546 20.5989 16.9546 16.8449C16.9546 13.1872 14.3972 10.107 10.5137 10.107C6.63028 10.107 3.97817 13.0909 3.97817 16.8449C3.97817 20.5989 6.725 23.6792 10.5137 23.6792Z" fill="#8C64D8"/>
<path d="M24.6268 16.9412C24.6268 11.0695 29.4574 6.73798 35.1405 6.73798C40.8236 6.73798 45.6542 11.0695 45.6542 16.9412C45.6542 22.8128 40.8236 27.1444 35.1405 27.1444C29.4574 27.1444 24.6268 22.8128 24.6268 16.9412ZM35.1405 23.6792C39.024 23.6792 41.5813 20.6952 41.5813 16.9412C41.5813 13.1872 38.9292 10.2032 35.1405 10.2032C31.3518 10.2032 28.6997 13.1872 28.6997 16.9412C28.6997 20.6952 31.257 23.6792 35.1405 23.6792Z" fill="#8C64D8"/>
<path d="M59.8622 27.1444C53.8002 27.1444 49.2537 22.8128 49.2537 16.9412C49.2537 11.0695 53.7055 6.73798 59.7675 6.73798C64.4087 6.73798 68.671 9.24065 69.8076 14.1497H65.8294C64.8822 11.5508 62.5143 10.2032 59.8622 10.2032C55.7893 10.2032 53.3266 13.2834 53.3266 17.0374C53.3266 20.7915 55.884 23.7754 59.9569 23.7754C62.609 23.7754 64.977 22.5241 65.9241 19.7326H69.9023C68.4815 24.738 64.3139 27.1444 59.8622 27.1444Z" fill="#8C64D8"/>
<path d="M84.2043 24.3529L77.8581 10.877H77.7634V26.7594H74.0694V7.123H79.9419L86.1933 20.5027H86.2881L92.5395 7.123H98.412V26.6631H94.718V10.877H94.6233L88.2771 24.3529H84.2043Z" fill="#8C64D8"/>
<path d="M102.58 16.9412C102.58 11.0695 107.411 6.73798 113.094 6.73798C118.777 6.73798 123.607 11.0695 123.607 16.9412C123.607 22.8128 118.777 27.1444 113.094 27.1444C107.411 27.1444 102.58 22.8128 102.58 16.9412ZM113.188 23.6792C117.072 23.6792 119.629 20.6952 119.629 16.9412C119.629 13.1872 116.977 10.2032 113.188 10.2032C109.305 10.2032 106.748 13.1872 106.748 16.9412C106.653 20.6952 109.305 23.6792 113.188 23.6792Z" fill="#8C64D8"/>
<path d="M125.596 26.8556V22.8128H125.691C126.449 22.8128 127.301 22.5241 127.869 21.8503C128.627 21.0802 128.911 19.5401 129.29 17.4225L129.859 14.246C130.522 10.6845 131.753 7.02673 137.057 7.02673H144.54V26.6631H140.656V10.6845H137.625C134.594 10.6845 134.026 11.5508 133.268 15.6898L132.795 18.5775C132.321 21.2727 131.658 23.5829 130.332 25.0267C129.29 26.1818 127.869 26.7594 125.88 26.7594H125.596V26.8556Z" fill="#8C64D8"/>
<path d="M148.897 16.9412C148.897 11.0695 153.728 6.73798 159.411 6.73798C165.094 6.73798 169.925 11.0695 169.925 16.9412C169.925 22.8128 165.094 27.1444 159.411 27.1444C153.728 27.1444 148.897 22.8128 148.897 16.9412ZM159.411 23.6792C163.294 23.6792 165.852 20.6952 165.852 16.9412C165.852 13.1872 163.2 10.2032 159.411 10.2032C155.527 10.2032 152.97 13.1872 152.97 16.9412C152.97 20.6952 155.622 23.6792 159.411 23.6792Z" fill="#8C64D8"/>
<path d="M174.471 31.4759H170.777V23.1016H173.24C174.377 21.8503 174.945 19.9251 175.419 17.7112L176.271 14.0535C177.029 10.5882 178.544 7.02673 183.28 7.02673H190.763V23.1016H193.51V31.4759H189.816V26.7594H174.377V31.4759H174.471ZM186.974 23.1979V10.6845H183.375C181.007 10.6845 180.249 12.6096 179.776 14.631L178.923 18.385C178.45 20.5027 177.787 22.2353 177.029 22.9091V23.1979H186.974Z" fill="#8C64D8"/>
<path d="M206.959 27.1444C200.803 27.1444 196.351 22.8128 196.351 16.9412C196.351 11.0695 200.803 6.73797 206.77 6.73797C211.411 6.73797 216.905 9.81818 216.905 17.2299V18H200.14C200.518 21.2727 203.076 23.6791 206.865 23.6791C209.138 23.6791 211.79 22.8128 212.548 20.8877H216.526C215.389 25.2193 210.937 27.1444 206.959 27.1444ZM200.329 0H204.307V4.04278H200.329V0ZM213.021 15.016C212.453 12.0321 210.18 10.107 206.77 10.107C203.455 10.107 201.087 12.2246 200.424 15.016H213.021ZM208.948 0H212.927V4.04278H208.948V0Z" fill="#8C64D8"/>
<path d="M235.186 7.123V14.9198H238.406L242.953 7.123H247.215L241.532 16.4599L247.594 26.6631H243.237L238.406 18.385H235.091V26.6631H231.492V18.385H228.271L223.441 26.6631H219.084L225.146 16.4599L219.463 7.123H223.725L228.271 14.9198H231.492V7.123H235.186Z" fill="#8C64D8"/>
<path d="M250.341 17.9038L250.246 7.123H254.129V12.7059H254.224C255.834 10.6845 257.918 9.72193 260.381 9.72193C265.117 9.72193 268.906 13.2834 268.906 18.2888C268.906 23.3904 265.022 27.1444 259.623 27.1444C254.319 27.1444 250.341 23.2941 250.341 17.9038ZM259.623 23.6792C262.654 23.6792 264.927 21.4652 264.927 18.4813C264.927 15.4973 262.654 13.1872 259.623 13.1872C256.592 13.1872 254.414 15.4011 254.414 18.4813C254.414 21.5615 256.592 23.6792 259.623 23.6792Z" fill="#8C64D8"/>
</svg>
