<svg width="144" height="21" viewBox="0 0 144 21" fill="none" xmlns="http://www.w3.org/2000/svg">
<g clip-path="url(#clip0_1903_590)">
<path d="M5.69108 3.66846C8.78404 3.66846 11.2685 6.02675 11.2685 9.22354C11.2685 12.3679 8.73333 14.7786 5.84319 14.7786C4.47418 14.7786 3.15587 14.3594 2.19249 13.2064H2.09108V21.277H0.012207V10.062C0.012207 6.18397 2.19249 3.66846 5.69108 3.66846ZM5.64038 12.892C7.66855 12.892 9.08826 11.215 9.08826 9.17113C9.08826 7.17969 7.71925 5.50268 5.64038 5.50268C3.5615 5.50268 2.14178 7.12728 2.14178 9.17113C2.14178 11.215 3.61221 12.892 5.64038 12.892Z" fill="#DAEF14"/>
<path d="M13.1953 9.22354C13.1953 6.02675 15.7812 3.66846 18.8235 3.66846C21.8657 3.66846 24.4516 6.02675 24.4516 9.22354C24.4516 12.4203 21.8657 14.7786 18.8235 14.7786C15.7812 14.7786 13.1953 12.4203 13.1953 9.22354ZM18.8235 12.892C20.9024 12.892 22.2714 11.2674 22.2714 9.22354C22.2714 7.17969 20.8516 5.55509 18.8235 5.55509C16.7953 5.55509 15.3756 7.17969 15.3756 9.22354C15.3756 11.2674 16.7446 12.892 18.8235 12.892Z" fill="#DAEF14"/>
<path d="M32.0573 14.7786C28.8122 14.7786 26.3784 12.4203 26.3784 9.22354C26.3784 6.02675 28.7615 3.66846 32.0066 3.66846C34.4911 3.66846 36.7728 5.03102 37.3812 7.70375H35.2517C34.7446 6.28878 33.477 5.55509 32.0573 5.55509C29.877 5.55509 28.5587 7.23209 28.5587 9.27594C28.5587 11.3198 29.9277 12.9444 32.108 12.9444C33.5277 12.9444 34.7953 12.2631 35.3024 10.7433H37.4319C36.6714 13.4685 34.4404 14.7786 32.0573 14.7786Z" fill="#DAEF14"/>
<path d="M45.0884 13.2589L41.6913 5.92202H41.6406V14.5691H39.6631V3.87817H42.8068L46.1532 11.1627H46.2039L49.5504 3.87817H52.6941V14.5167H50.7166V5.92202H50.6659L47.2687 13.2589H45.0884Z" fill="#DAEF14"/>
<path d="M54.9253 9.22354C54.9253 6.02675 57.5112 3.66846 60.5535 3.66846C63.5957 3.66846 66.1816 6.02675 66.1816 9.22354C66.1816 12.4203 63.5957 14.7786 60.5535 14.7786C57.5112 14.7786 54.9253 12.4203 54.9253 9.22354ZM60.6042 12.892C62.683 12.892 64.0521 11.2674 64.0521 9.22354C64.0521 7.17969 62.6323 5.55509 60.6042 5.55509C58.5253 5.55509 57.1563 7.17969 57.1563 9.22354C57.1056 11.2674 58.5253 12.892 60.6042 12.892Z" fill="#DAEF14"/>
<path d="M67.2461 14.6214V12.4203H67.2968C67.7024 12.4203 68.1588 12.2631 68.463 11.8963C68.8686 11.477 69.0207 10.6385 69.2236 9.48558L69.5278 7.75616C69.8827 5.81713 70.5419 3.82568 73.3813 3.82568H77.3869V14.5166H75.3081V5.81713H73.6855C72.063 5.81713 71.7588 6.28878 71.3531 8.54226L71.0996 10.1145C70.8461 11.5818 70.4912 12.8396 69.7813 13.6257C69.2236 14.2546 68.463 14.569 67.3982 14.569H67.2461V14.6214Z" fill="#DAEF14"/>
<path d="M79.7192 9.22354C79.7192 6.02675 82.3052 3.66846 85.3474 3.66846C88.3897 3.66846 90.9756 6.02675 90.9756 9.22354C90.9756 12.4203 88.3897 14.7786 85.3474 14.7786C82.3052 14.7786 79.7192 12.4203 79.7192 9.22354ZM85.3474 12.892C87.4263 12.892 88.7953 11.2674 88.7953 9.22354C88.7953 7.17969 87.3756 5.55509 85.3474 5.55509C83.2685 5.55509 81.8995 7.17969 81.8995 9.22354C81.8995 11.2674 83.3192 12.892 85.3474 12.892Z" fill="#DAEF14"/>
<path d="M93.4096 17.1369H91.4321V12.5776H92.7504C93.3589 11.8963 93.6631 10.8481 93.9166 9.6428L94.373 7.65135C94.7786 5.76472 95.5899 3.82568 98.1251 3.82568H102.131V12.5776H103.601V17.1369H101.624V14.569H93.3589V17.1369H93.4096ZM100.103 12.63V5.81713H98.1758C96.9082 5.81713 96.5026 6.86526 96.249 7.96579L95.7927 10.0096C95.5392 11.1626 95.1842 12.1059 94.7786 12.4727V12.63H100.103Z" fill="#DAEF14"/>
<path d="M110.801 14.7786C107.505 14.7786 105.122 12.4203 105.122 9.22353C105.122 6.02674 107.505 3.66845 110.7 3.66845C113.184 3.66845 116.125 5.34546 116.125 9.38075V9.8H107.15C107.353 11.5818 108.722 12.892 110.75 12.892C111.967 12.892 113.387 12.4203 113.792 11.3722H115.922C115.314 13.7305 112.931 14.7786 110.801 14.7786ZM107.252 0H109.381V2.20107H107.252V0ZM114.046 8.1754C113.742 6.5508 112.525 5.50267 110.7 5.50267C108.925 5.50267 107.657 6.65562 107.302 8.1754H114.046ZM111.866 0H113.995V2.20107H111.866V0Z" fill="#DAEF14"/>
<path d="M125.911 3.87817V8.12309H127.635L130.068 3.87817H132.35L129.308 8.9616L132.553 14.5167H130.221L127.635 10.0097H125.86V14.5167H123.933V10.0097H122.209L119.623 14.5167H117.291L120.536 8.9616L117.494 3.87817H119.776L122.209 8.12309H123.933V3.87817H125.911Z" fill="#DAEF14"/>
<path d="M134.024 9.74769L133.973 3.87817H136.052V6.91775H136.103C136.965 5.81721 138.08 5.29315 139.398 5.29315C141.934 5.29315 143.962 7.23219 143.962 9.95732C143.962 12.7349 141.883 14.7787 138.993 14.7787C136.153 14.7787 134.024 12.6825 134.024 9.74769ZM138.993 12.8921C140.615 12.8921 141.832 11.6867 141.832 10.0621C141.832 8.43753 140.615 7.17978 138.993 7.17978C137.37 7.17978 136.204 8.38513 136.204 10.0621C136.204 11.7391 137.37 12.8921 138.993 12.8921Z" fill="#DAEF14"/>
</g>
<defs>
<clipPath id="clip0_1903_590">
<rect width="144" height="21" fill="white"/>
</clipPath>
</defs>
</svg>
