<svg width="160" height="32" viewBox="0 0 160 32" fill="none" xmlns="http://www.w3.org/2000/svg">
<g clip-path="url(#clip0_1903_692)">
<path d="M6.30986 3.99286C9.74648 3.99286 12.507 6.5597 12.507 10.0392C12.507 13.4617 9.69014 16.0856 6.47887 16.0856C4.95775 16.0856 3.49296 15.6292 2.42254 14.3743H2.30986V23.1586H0V10.9519C0 6.73083 2.42254 3.99286 6.30986 3.99286ZM6.25352 14.0321C8.50704 14.0321 10.0845 12.2068 10.0845 9.98216C10.0845 7.81461 8.56338 5.98929 6.25352 5.98929C3.94366 5.98929 2.3662 7.75757 2.3662 9.98216C2.3662 12.2068 4 14.0321 6.25352 14.0321Z" fill="#DAEF14"/>
<path d="M14.6479 10.0392C14.6479 6.5597 17.5212 3.99286 20.9015 3.99286C24.2818 3.99286 27.155 6.5597 27.155 10.0392C27.155 13.5187 24.2818 16.0856 20.9015 16.0856C17.5212 16.0856 14.6479 13.5187 14.6479 10.0392ZM20.9015 14.0321C23.2113 14.0321 24.7325 12.2638 24.7325 10.0392C24.7325 7.81461 23.155 6.04634 20.9015 6.04634C18.6479 6.04634 17.0705 7.81461 17.0705 10.0392C17.0705 12.2638 18.5916 14.0321 20.9015 14.0321Z" fill="#DAEF14"/>
<path d="M35.6058 16.0856C32.0001 16.0856 29.2959 13.5187 29.2959 10.0392C29.2959 6.5597 31.9438 3.99286 35.5494 3.99286C38.31 3.99286 40.8452 5.47592 41.5212 8.38502H39.1551C38.5917 6.84491 37.1832 6.04634 35.6058 6.04634C33.1832 6.04634 31.7184 7.87165 31.7184 10.0962C31.7184 12.3208 33.2396 14.0891 35.6621 14.0891C37.2396 14.0891 38.648 13.3476 39.2114 11.6934H41.5776C40.7325 14.6595 38.2536 16.0856 35.6058 16.0856Z" fill="#DAEF14"/>
<path d="M50.0843 14.4314L46.3097 6.44567H46.2533V15.8574H44.0562V4.22107H47.5491L51.2674 12.1498H51.3238L55.0421 4.22107H58.535V15.8004H56.3378V6.44567H56.2815L52.5069 14.4314H50.0843Z" fill="#DAEF14"/>
<path d="M61.0142 10.0392C61.0142 6.5597 63.8874 3.99286 67.2677 3.99286C70.648 3.99286 73.5212 6.5597 73.5212 10.0392C73.5212 13.5187 70.648 16.0856 67.2677 16.0856C63.8874 16.0856 61.0142 13.5187 61.0142 10.0392ZM67.324 14.0321C69.6339 14.0321 71.155 12.2638 71.155 10.0392C71.155 7.81461 69.5775 6.04634 67.324 6.04634C65.0142 6.04634 63.493 7.81461 63.493 10.0392C63.4367 12.2638 65.0142 14.0321 67.324 14.0321Z" fill="#DAEF14"/>
<path d="M74.7041 15.9144V13.5187H74.7604C75.2111 13.5187 75.7182 13.3476 76.0562 12.9483C76.5069 12.492 76.6759 11.5793 76.9013 10.3244L77.2393 8.44208C77.6337 6.33156 78.3661 4.164 81.521 4.164H85.9717V15.8004H83.6618V6.33156H81.859C80.0562 6.33156 79.7182 6.84493 79.2675 9.29769L78.9858 11.0089C78.7041 12.6061 78.3097 13.9751 77.521 14.8307C76.9013 15.5152 76.0562 15.8574 74.8731 15.8574H74.7041V15.9144Z" fill="#DAEF14"/>
<path d="M88.5635 10.0392C88.5635 6.5597 91.4367 3.99286 94.817 3.99286C98.1973 3.99286 101.071 6.5597 101.071 10.0392C101.071 13.5187 98.1973 16.0856 94.817 16.0856C91.4367 16.0856 88.5635 13.5187 88.5635 10.0392ZM94.817 14.0321C97.1269 14.0321 98.648 12.2638 98.648 10.0392C98.648 7.81461 97.0705 6.04634 94.817 6.04634C92.5071 6.04634 90.986 7.81461 90.986 10.0392C90.986 12.2638 92.5635 14.0321 94.817 14.0321Z" fill="#DAEF14"/>
<path d="M103.775 18.6524H101.578V13.6898H103.042C103.718 12.9483 104.057 11.8075 104.338 10.4956L104.845 8.32799C105.296 6.27452 106.197 4.164 109.014 4.164H113.465V13.6898H115.099V18.6524H112.902V15.8574H103.718V18.6524H103.775ZM111.211 13.7469V6.33156H109.071C107.662 6.33156 107.211 7.47238 106.93 8.67024L106.423 10.8948C106.141 12.1497 105.747 13.1765 105.296 13.5758V13.7469H111.211Z" fill="#DAEF14"/>
<path d="M123.098 16.0856C119.436 16.0856 116.789 13.5187 116.789 10.0392C116.789 6.55972 119.436 3.99287 122.986 3.99287C125.746 3.99287 129.014 5.81818 129.014 10.2103V10.6667H119.042C119.267 12.6061 120.789 14.0321 123.042 14.0321C124.394 14.0321 125.972 13.5187 126.422 12.3779H128.789C128.113 14.9447 125.465 16.0856 123.098 16.0856ZM119.155 0H121.521V2.39572H119.155V0ZM126.704 8.8984C126.366 7.13013 125.014 5.98931 122.986 5.98931C121.014 5.98931 119.605 7.24421 119.211 8.8984H126.704ZM124.282 0H126.648V2.39572H124.282V0Z" fill="#DAEF14"/>
<path d="M139.888 4.22107V8.84139H141.803L144.507 4.22107H147.042L143.662 9.75405L147.268 15.8004H144.676L141.803 10.8949H139.831V15.8004H137.69V10.8949H135.775L132.902 15.8004H130.31L133.916 9.75405L130.535 4.22107H133.071L135.775 8.84139H137.69V4.22107H139.888Z" fill="#DAEF14"/>
<path d="M148.902 10.6097L148.845 4.22107H151.155V7.52945H151.211C152.169 6.33159 153.409 5.76118 154.873 5.76118C157.69 5.76118 159.944 7.87169 159.944 10.8378C159.944 13.861 157.634 16.0856 154.423 16.0856C151.268 16.0856 148.902 13.804 148.902 10.6097ZM154.423 14.0321C156.225 14.0321 157.578 12.7202 157.578 10.9519C157.578 9.18364 156.225 7.81465 154.423 7.81465C152.62 7.81465 151.324 9.1266 151.324 10.9519C151.324 12.7772 152.62 14.0321 154.423 14.0321Z" fill="#DAEF14"/>
<path d="M49.6899 27.779C49.6899 25.2692 51.4364 23.5579 53.9716 23.5579C54.9857 23.5579 55.8308 23.8431 56.6759 24.3565L56.0561 25.4403C55.3801 25.041 54.704 24.8128 53.9153 24.8128C52.1125 24.8128 50.9857 26.1818 50.9857 27.836C50.9857 29.5472 52.1688 30.8592 53.9153 30.8592C54.704 30.8592 55.3801 30.574 56.0561 30.2317L56.6759 31.3155C55.8308 31.8289 54.9857 32.1141 53.9716 32.1141C51.4364 32 49.6899 30.2888 49.6899 27.779Z" fill="#DAEF14"/>
<path d="M65.577 27.779C65.577 30.2317 63.7742 32 61.2954 32C58.8165 32 57.0137 30.2317 57.0137 27.779C57.0137 25.3262 58.8165 23.5579 61.2954 23.5579C63.7742 23.5009 65.577 25.2692 65.577 27.779ZM58.3094 27.779C58.3094 29.6043 59.5489 30.8021 61.2954 30.8021C62.9855 30.8021 64.2813 29.6043 64.2813 27.779C64.2813 25.9536 63.0418 24.7558 61.2954 24.7558C59.6052 24.7558 58.3094 25.9536 58.3094 27.779Z" fill="#DAEF14"/>
<path d="M66.5913 26.7522C66.5913 24.8128 67.042 22.5882 68.7885 21.5615C69.8026 20.9911 71.4364 20.7058 72.2814 20.4777C72.7885 20.3066 73.2392 20.0214 73.2392 19.6221H74.4223C74.4223 20.7058 73.8589 21.2192 72.8448 21.5044C72.1688 21.6755 70.366 22.0178 69.4082 22.5312C68.3378 23.1016 67.8307 24.3565 67.6617 25.9536H67.7181C68.2814 24.4706 69.6336 23.672 71.2674 23.672C73.5772 23.672 75.211 25.3262 75.211 27.7789C75.211 30.2887 73.5772 32.057 70.9293 32.057C68.5068 32 66.5913 30.5739 66.5913 26.7522ZM73.9716 27.7789C73.9716 25.8966 72.6195 24.7558 70.9857 24.7558C69.3519 24.7558 67.9998 25.8966 67.9998 27.7219C67.9998 29.6042 69.3519 30.7451 70.9857 30.7451C72.6195 30.8021 73.9716 29.6613 73.9716 27.7789Z" fill="#DAEF14"/>
<path d="M83.155 29.2049C83.155 30.688 82.0845 31.7147 80.4507 31.7147H76.7324V23.729H77.9719V26.6951H80.5071C82.1409 26.6951 83.155 27.6648 83.155 29.2049ZM81.8592 29.262C81.8592 28.3493 81.3521 27.893 80.3381 27.893H77.9719V30.688H80.3381C81.4085 30.631 81.8592 30.1176 81.8592 29.262ZM85.1831 23.786V31.7718H83.9437V23.786H85.1831Z" fill="#DAEF14"/>
<path d="M93.5774 24.9269H90.5351V31.7718H89.2957V24.9269H86.2534V23.7861H93.521V24.9269H93.5774Z" fill="#DAEF14"/>
<path d="M94.6475 23.7861H95.8869V29.8324H95.9432L100.45 23.7861H101.69V31.7718H100.45V25.6684H100.394L95.8869 31.7148H94.6475V23.7861Z" fill="#DAEF14"/>
<path d="M109.69 23.7861V31.7718H108.45V28.6346H106.817L104.45 31.7718H102.929L105.352 28.6346C104 28.4634 103.098 27.6078 103.098 26.2388C103.098 24.6987 104.169 23.7861 105.802 23.7861H109.69ZM108.45 27.4937V24.9269H105.971C104.957 24.9269 104.394 25.3832 104.394 26.2388C104.394 27.0944 104.901 27.5508 105.971 27.5508H108.45V27.4937Z" fill="#DAEF14"/>
</g>
<defs>
<clipPath id="clip0_1903_692">
<rect width="160" height="32" fill="white"/>
</clipPath>
</defs>
</svg>
