<svg width="32" height="32" viewBox="0 0 32 32" fill="none" xmlns="http://www.w3.org/2000/svg">
<g clip-path="url(#clip0_2702_13263)">
<path d="M15.9917 11.1279L15.116 16.2337C14.9846 16.9995 15.7885 17.5835 16.4763 17.222L21.0615 14.8114L25.6468 17.222C26.3345 17.5835 27.1384 16.9995 27.007 16.2337L26.1313 11.1279L29.8409 7.51198C30.3973 6.96961 30.0903 6.02461 29.3213 5.91292L24.1949 5.16805L21.9022 0.522609C21.5583 -0.174203 20.5647 -0.174203 20.2208 0.522609L17.9282 5.16798L12.8018 5.91286C12.0328 6.02461 11.7258 6.96955 12.2822 7.51192L15.9917 11.1279ZM18.6856 6.95261C18.9909 6.90823 19.2549 6.71642 19.3914 6.43973L21.0615 3.0558L22.7316 6.43973C22.8681 6.71642 23.1321 6.90823 23.4374 6.95261L27.1718 7.49523L24.4696 10.1293C24.2486 10.3447 24.1478 10.655 24.1999 10.9591L24.8378 14.6784L21.4977 12.9224C21.2246 12.7789 20.8983 12.7789 20.6252 12.9224L17.2851 14.6784L17.9229 10.9591C17.9751 10.655 17.8743 10.3447 17.6533 10.1293L14.9511 7.49523L18.6856 6.95261Z" fill="#DAEF14"/>
<path d="M31.5893 22.0951C30.8252 20.8217 29.2182 20.338 27.8782 20.9782L21.7523 23.905C21.8579 22.333 20.7638 20.9017 19.177 20.6218L15.4426 19.9633C14.9662 19.8793 14.5272 19.6607 14.1731 19.3311C12.2368 17.529 9.48869 16.9913 7.064 17.8224V17.3125C7.064 16.7948 6.64425 16.375 6.1265 16.375H0.9375C0.41975 16.375 0 16.7948 0 17.3125V29.8125C0 30.3303 0.41975 30.75 0.9375 30.75H6.1265C6.64425 30.75 7.064 30.3303 7.064 29.8125V29.4655L13.421 31.4073C14.7086 31.8006 16.0442 32 17.3905 32C20.0157 32 22.5683 31.2461 24.7724 29.82L30.6842 25.9947C31.9877 25.1513 32.3881 23.4264 31.5893 22.0951ZM5.189 28.875H1.875V18.25H5.189V28.875ZM29.6657 24.4205L23.7537 28.2458C21.8538 29.4752 19.6534 30.125 17.3905 30.125C16.2299 30.125 15.0787 29.9532 13.9688 29.6141L7.064 27.505V19.8475C8.97781 18.9048 11.3082 19.2262 12.8956 20.7036C13.5152 21.2803 14.2833 21.6629 15.117 21.8099L18.8514 22.4683C19.5312 22.5882 19.9851 23.2365 19.8652 23.9163C19.7461 24.5918 19.1051 25.0437 18.4299 24.9317C18.4194 24.9299 12.8044 23.9404 12.8044 23.9404C12.2946 23.8505 11.8083 24.191 11.7184 24.7008C11.6284 25.2107 11.9689 25.697 12.4788 25.7869H12.4789L18.0728 26.7732C19.0405 26.9438 20.0208 26.8101 20.9075 26.3865L28.6865 22.6699C29.1541 22.4465 29.7148 22.6153 29.9814 23.0596C30.2602 23.5243 30.1205 24.1262 29.6657 24.4205Z" fill="#DAEF14"/>
</g>
<defs>
<clipPath id="clip0_2702_13263">
<rect width="32" height="32" fill="white"/>
</clipPath>
</defs>
</svg>
