<svg width="32" height="32" viewBox="0 0 32 32" fill="none" xmlns="http://www.w3.org/2000/svg">
<g clip-path="url(#clip0_2702_13254)">
<path d="M31.0625 0H0.9375C0.41975 0 0 0.41975 0 0.9375V26.3024C0 26.8202 0.41975 27.2399 0.9375 27.2399H11.3125V30.125H10.765C9.52113 30.1746 9.52206 31.9509 10.765 32H21.235C22.4789 31.9504 22.4779 30.1741 21.235 30.125H20.6875V27.2399H31.0625C31.5802 27.2399 32 26.8202 32 26.3024V0.9375C32 0.41975 31.5802 0 31.0625 0ZM1.875 1.875H30.125V20.0997H1.875V1.875ZM18.8125 30.125H13.1875V27.2399H18.8125V30.125ZM30.125 25.3649H19.75H12.25H1.875V21.9747H30.125V25.3649Z" fill="#DAEF14"/>
<path d="M25.0288 5.54688H19.3271C18.0832 5.59644 18.0841 7.37281 19.3271 7.42188H25.0288C26.2726 7.37231 26.2717 5.59594 25.0288 5.54688Z" fill="#DAEF14"/>
<path d="M25.0288 10.0498H19.3271C18.0832 10.0994 18.0841 11.8757 19.3271 11.9248H25.0288C26.2726 11.8752 26.2717 10.0989 25.0288 10.0498Z" fill="#DAEF14"/>
<path d="M25.0288 14.5527H19.3271C18.0832 14.6023 18.0841 16.3787 19.3271 16.4277H25.0288C26.2726 16.3782 26.2717 14.6018 25.0288 14.5527Z" fill="#DAEF14"/>
<path d="M13.0086 10.9173C14.8148 8.85047 13.3089 5.53572 10.5383 5.5469C7.76795 5.53565 6.26177 8.85097 8.06808 10.9173C6.84364 11.7228 6.0332 13.1083 6.0332 14.6803V15.4903C6.0332 16.0081 6.45295 16.4278 6.9707 16.4278H14.106C14.6238 16.4278 15.0435 16.0081 15.0435 15.4903V14.6803C15.0436 13.1083 14.2331 11.7228 13.0086 10.9173ZM10.5384 7.4219C11.3008 7.4219 11.921 8.04022 11.921 8.80015C11.8451 10.6287 9.23139 10.6281 9.15577 8.80015C9.15583 8.04022 9.77602 7.4219 10.5384 7.4219ZM7.91127 14.5528C7.97795 13.1633 9.12933 12.0535 10.535 12.0535H10.5416C11.9474 12.0535 13.0988 13.1633 13.1655 14.5528H7.91127Z" fill="#DAEF14"/>
</g>
<defs>
<clipPath id="clip0_2702_13254">
<rect width="32" height="32" fill="white"/>
</clipPath>
</defs>
</svg>
