<svg width="32" height="32" viewBox="0 0 32 32" fill="none" xmlns="http://www.w3.org/2000/svg">
<g clip-path="url(#clip0_2702_13275)">
<path d="M26.0646 3.18762V2.81256C26.0646 1.26175 24.8029 0.00012207 23.2521 0.00012207C21.7013 0.00012207 20.4396 1.26181 20.4396 2.81256V3.18762H11.5604V2.81256C11.5604 1.26175 10.2987 0.00012207 8.74788 0.00012207C7.19706 0.00012207 5.93538 1.26181 5.93538 2.81256V3.18762H0V32.0001H32V3.18762H26.0646ZM22.3146 2.81256C22.3146 2.29562 22.7352 1.87512 23.2521 1.87512C23.7691 1.87512 24.1896 2.29568 24.1896 2.81256V4.76925C24.1896 5.28618 23.7691 5.70675 23.2521 5.70675C22.7352 5.70675 22.3146 5.28618 22.3146 4.76925V2.81256ZM7.81038 2.81256C7.81038 2.29562 8.23094 1.87512 8.74788 1.87512C9.26481 1.87512 9.68538 2.29568 9.68538 2.81256V4.76925C9.68538 5.28618 9.26481 5.70675 8.74788 5.70675C8.23094 5.70675 7.81038 5.28618 7.81038 4.76925V2.81256ZM5.95069 5.06262C6.09788 6.47606 7.29606 7.58175 8.74788 7.58175C10.1997 7.58175 11.3978 6.47606 11.545 5.06262H20.455C20.6022 6.47606 21.8004 7.58175 23.2522 7.58175C24.704 7.58175 25.9021 6.47612 26.0494 5.06262H30.125V9.41681H1.875V5.06262H5.95069ZM1.875 30.1251V11.2918H30.125V30.1251H1.875Z" fill="#DAEF14"/>
<path d="M16 13.2385C11.872 13.2385 8.51373 16.5968 8.51373 20.7247C8.51373 24.8527 11.872 28.2111 16 28.2111C20.1279 28.2111 23.4862 24.8527 23.4862 20.7247C23.4862 16.5969 20.1279 13.2385 16 13.2385ZM16 26.3361C12.9059 26.3361 10.3887 23.8189 10.3887 20.7248C10.3887 17.6307 12.9059 15.1136 16 15.1136C19.094 15.1136 21.6112 17.6307 21.6112 20.7248C21.6112 23.8189 19.094 26.3361 16 26.3361Z" fill="#DAEF14"/>
<path d="M15.212 21.3959L13.4547 19.6386L12.1289 20.9644L15.212 24.0475L19.8687 19.3909L18.5428 18.0651L15.212 21.3959Z" fill="#DAEF14"/>
</g>
<defs>
<clipPath id="clip0_2702_13275">
<rect width="32" height="32" fill="white"/>
</clipPath>
</defs>
</svg>
