<svg width="32" height="32" viewBox="0 0 32 32" fill="none" xmlns="http://www.w3.org/2000/svg">
<g clip-path="url(#clip0_2702_13269)">
<path d="M23.5 9.43762C23.1714 9.43762 22.8559 9.49481 22.5625 9.59887V4.68762C22.5625 3.13681 21.3008 1.87512 19.75 1.87512C19.3839 1.87512 19.0344 1.94612 18.7134 2.07393C18.3881 0.880435 17.2952 0.00012207 16 0.00012207C14.7048 0.00012207 13.6119 0.880435 13.2866 2.07393C12.9656 1.94612 12.6161 1.87512 12.25 1.87512C10.6992 1.87512 9.4375 3.13681 9.4375 4.68762V5.78575C9.14419 5.68175 8.82856 5.62512 8.5 5.62512C6.94919 5.62512 5.6875 6.88681 5.6875 8.43762V19.7501C5.6875 21.3997 6.06556 22.9761 6.81119 24.4357C7.44987 25.686 8.35238 26.8079 9.4375 27.7052V31.0626C9.4375 31.5804 9.85725 32.0001 10.375 32.0001H21.625C22.1427 32.0001 22.5625 31.5804 22.5625 31.0626V27.7052C24.8349 25.8262 26.3125 22.9774 26.3125 19.7501C26.3125 19.3905 26.3125 12.5392 26.3125 12.2501C26.3125 10.6993 25.0508 9.43762 23.5 9.43762ZM18.8125 4.68762C18.8125 4.17068 19.2331 3.75012 19.75 3.75012C20.2669 3.75012 20.6875 4.17068 20.6875 4.68762V12.2501V12.7324C20.1389 12.4113 19.5004 12.2282 18.8125 12.2281V4.68762ZM15.0625 2.81262C15.0625 2.29568 15.4831 1.87512 16 1.87512C16.5169 1.87512 16.9375 2.29568 16.9375 2.81262V12.7574C16.5946 12.9722 16.2797 13.2504 15.9985 13.5904C15.7181 13.2514 15.4043 12.9737 15.0625 12.7592V2.81262ZM11.3125 4.68762C11.3125 4.17068 11.7331 3.75012 12.25 3.75012C12.7669 3.75012 13.1875 4.17068 13.1875 4.68762V12.2281C13.1867 12.2281 13.186 12.2281 13.1853 12.2281C12.4984 12.2281 11.8607 12.4105 11.3125 12.7306V4.68762ZM11.311 16.0297C11.3113 16.0198 11.3125 16.0101 11.3125 16.0001V15.9936C11.3595 15.0577 12.0123 14.1031 13.1853 14.1031C14.5762 14.1031 15.0767 15.7006 15.0991 15.7744C15.2164 16.1732 15.5824 16.4474 15.9986 16.4474C16.4164 16.4474 16.7838 16.1709 16.8994 15.7694C16.9042 15.7527 17.3958 14.103 18.8118 14.103C20.0296 14.103 20.6869 15.1319 20.6876 16.1004V16.1028C20.6873 16.8122 20.306 17.4756 19.6367 18.1956C19.1949 18.5182 18.7977 18.8932 18.4522 19.3101C17.7557 19.9094 16.9226 20.5694 15.9985 21.327C13.2189 19.0481 11.3095 17.6905 11.3095 16.1019C11.3095 16.0779 11.3102 16.0538 11.311 16.0297ZM21.0619 26.5012C20.8262 26.6782 20.6875 26.9559 20.6875 27.2507V30.1251H11.3125V27.2508C11.3125 26.9559 11.1738 26.6783 10.9381 26.5012C8.79288 24.8899 7.5625 22.4292 7.5625 19.7501V8.43762C7.5625 7.92068 7.98306 7.50012 8.5 7.50012C9.01694 7.50012 9.4375 7.92068 9.4375 8.43762V15.9744C9.43625 16.0169 9.4345 16.0592 9.4345 16.1019C9.4345 18.8026 12.016 20.4447 15.3984 23.2633C15.7461 23.553 16.251 23.553 16.5987 23.2633C16.7209 23.1614 16.8412 23.0618 16.9603 22.9637C16.9457 23.1411 16.9375 23.3199 16.9375 23.5001C16.9375 24.0179 17.3573 24.4376 17.875 24.4376C18.3927 24.4376 18.8125 24.0179 18.8125 23.5001C18.8125 22.4307 19.178 21.4218 19.8072 20.6152C20.1907 20.2804 20.5433 19.9534 20.8592 19.6271C21.1885 19.402 21.5495 19.2162 21.9374 19.0791C22.312 18.9467 22.5624 18.5926 22.5624 18.1952C22.5624 17.5389 22.5624 12.9552 22.5624 12.2501C22.5624 11.7332 22.983 11.3126 23.4999 11.3126C24.0169 11.3126 24.4374 11.7332 24.4374 12.2501C24.4375 12.5534 24.4375 19.4047 24.4375 19.7501C24.4375 22.4292 23.2071 24.8899 21.0619 26.5012Z" fill="#DAEF14"/>
</g>
<defs>
<clipPath id="clip0_2702_13269">
<rect width="32" height="32" fill="white"/>
</clipPath>
</defs>
</svg>
