<svg width="32" height="32" viewBox="0 0 32 32" fill="none" xmlns="http://www.w3.org/2000/svg">
<g clip-path="url(#clip0_2702_13282)">
<path d="M25.375 18.8751C25.375 17.131 24.1781 15.6611 22.5625 15.2438V0.00012207H1.9375V30.1251H13.1875V32.0001H30.0625V18.8751H25.375ZM23.5 18.8751H19.75C19.75 17.8412 20.5911 17.0001 21.625 17.0001C22.6589 17.0001 23.5 17.8412 23.5 18.8751ZM3.8125 28.2501V1.87512H20.6875V15.2438C19.0719 15.6611 17.875 17.131 17.875 18.8751H13.1875V28.2501H3.8125ZM15.0625 30.1251V25.0789C16.6721 25.9266 18.8818 26.2729 20.6875 26.3535V28.2501H22.5625V26.3535C24.3669 26.2729 26.5782 25.9264 28.1875 25.0789V30.1251H15.0625ZM21.625 24.5001C18.3614 24.5001 15.0625 23.486 15.0625 22.6251V20.7501H28.1875V22.6251C28.1875 23.4866 24.8951 24.5001 21.625 24.5001Z" fill="#DAEF14"/>
<path d="M9.4375 5.75009H18.8125V7.62509H9.4375V5.75009Z" fill="#DAEF14"/>
<path d="M5.6875 5.75009H7.5625V7.62509H5.6875V5.75009Z" fill="#DAEF14"/>
<path d="M5.6875 9.50009H7.5625V11.3751H5.6875V9.50009Z" fill="#DAEF14"/>
<path d="M5.6875 13.2501H7.5625V15.1251H5.6875V13.2501Z" fill="#DAEF14"/>
<path d="M9.4375 9.50009H18.8125V11.3751H9.4375V9.50009Z" fill="#DAEF14"/>
<path d="M9.4375 13.2501H18.8125V15.1251H9.4375V13.2501Z" fill="#DAEF14"/>
</g>
<defs>
<clipPath id="clip0_2702_13282">
<rect width="32" height="32" fill="white"/>
</clipPath>
</defs>
</svg>
