<svg width="24" height="24" viewBox="0 0 24 24" fill="none" xmlns="http://www.w3.org/2000/svg">
<path fill-rule="evenodd" clip-rule="evenodd" d="M12 24C18.6274 24 24 18.6274 24 12C24 5.37258 18.6274 0 12 0C5.37258 0 0 5.37258 0 12C0 18.6274 5.37258 24 12 24ZM10.2822 10.2822C11.4986 9.06587 11.72 7.24308 11.7602 4H12.2398C12.28 7.24308 12.5014 9.06587 13.7178 10.2822C14.9341 11.4986 16.7569 11.7199 20 11.7602V12.2397C16.7569 12.28 14.9341 12.5014 13.7178 13.7178C12.5014 14.9341 12.28 16.7569 12.2398 20H11.7602C11.72 16.7569 11.4986 14.9341 10.2822 13.7178C9.06587 12.5014 7.2431 12.28 4 12.2397V11.7602C7.2431 11.72 9.06587 11.4986 10.2822 10.2822Z" fill="#8C64D8"/>
</svg>
