<svg width="54" height="54" viewBox="0 0 54 54" fill="none" xmlns="http://www.w3.org/2000/svg">
<path d="M50.6841 38.1375C50.5457 38.0278 40.5 30.7868 37.7426 31.3065C36.4264 31.5394 35.6738 32.4371 34.1634 34.2343C33.9204 34.5246 33.3366 35.2198 32.8826 35.7142C31.9282 35.4029 30.9971 35.024 30.0966 34.5802C25.4484 32.3173 21.6928 28.5617 19.4299 23.9136C18.9858 23.0131 18.6069 22.0821 18.2959 21.1275C18.792 20.6719 19.4872 20.088 19.7843 19.8382C21.573 18.3364 22.4724 17.5837 22.7053 16.2641C23.1829 13.5304 15.9469 3.4155 15.8709 3.32438C15.5426 2.85537 15.1142 2.46521 14.6166 2.18211C14.119 1.89902 13.5647 1.73007 12.9937 1.6875C10.0609 1.6875 1.6875 12.5499 1.6875 14.3792C1.6875 14.4855 1.84106 25.2922 15.1672 38.8479C28.7094 52.1589 39.5145 52.3125 39.6208 52.3125C41.4518 52.3125 52.3125 43.9391 52.3125 41.0062C52.2704 40.4373 52.1025 39.8849 51.8209 39.3888C51.5392 38.8927 51.151 38.4653 50.6841 38.1375Z" fill="#8C64D8"/>
</svg>
