<svg width="24" height="24" viewBox="0 0 24 24" fill="none" xmlns="http://www.w3.org/2000/svg">
<path fill-rule="evenodd" clip-rule="evenodd" d="M12 24C18.6274 24 24 18.6274 24 12C24 5.37258 18.6274 0 12 0C5.37258 0 0 5.37258 0 12C0 18.6274 5.37258 24 12 24ZM16.8298 10.2552C16.8298 11.4707 16.2743 12.4391 15.4088 13.1469L18 18H14.673L12.7683 13.9347H9.84634V18L7.00361 17.9773L7 6L13.0186 6.02369C15.1231 6.02369 16.8298 7.59198 16.8298 9.72648V10.2552ZM12.4067 11.4423C13.2451 11.4423 13.925 10.9599 13.925 10.11V10.0133C13.925 9.16311 13.2451 8.56603 12.4067 8.56603H9.84647V11.4423H12.4067Z" fill="#8C64D8"/>
</svg>
