<svg width="24" height="24" viewBox="0 0 24 24" fill="none" xmlns="http://www.w3.org/2000/svg">
<path d="M13.246 0.0633171C6.6531 -0.598198 0.740339 3.99896 0.0639578 10.3317C-0.612423 16.6644 4.15197 22.3393 10.7523 23.0008C17.3526 23.6623 23.2467 19.0652 23.9343 12.7324C24.6218 6.39974 19.8388 0.743414 13.246 0.0633171ZM17.7056 10.3614C17.7051 10.3868 17.6996 10.4118 17.6895 10.4351C17.6793 10.4583 17.6647 10.4794 17.6464 10.497C17.6281 10.5146 17.6065 10.5284 17.5829 10.5377C17.5592 10.5469 17.534 10.5514 17.5086 10.5509C16.454 10.5726 15.4176 10.2746 14.5355 9.69617V14.1558C14.5391 14.1792 14.5391 14.203 14.5355 14.2264C14.4442 15.305 13.9459 16.3085 13.1419 17.0331C12.3378 17.7578 11.2882 18.1495 10.206 18.1286C9.64583 18.1405 9.08887 18.0418 8.56692 17.8382C8.04497 17.6346 7.56828 17.3301 7.1641 16.9422C6.75991 16.5542 6.43617 16.0904 6.21139 15.5772C5.9866 15.064 5.86518 14.5116 5.85407 13.9514C5.87944 12.8241 6.35047 11.7527 7.16402 10.9719C7.97758 10.1911 9.06737 9.76443 10.1948 9.78536H10.336H10.4029C10.4526 9.7872 10.4997 9.80776 10.5349 9.84292C10.5701 9.87807 10.5906 9.92522 10.5925 9.9749V12.2642C10.5905 12.3151 10.5689 12.3633 10.5322 12.3987C10.4955 12.434 10.4465 12.4538 10.3955 12.4537H10.31C10.2729 12.4501 10.2356 12.4501 10.1985 12.4537C9.90719 12.4624 9.62452 12.5548 9.38436 12.7199C9.14419 12.885 8.95671 13.1159 8.84435 13.3848C8.73199 13.6537 8.69952 13.9493 8.75082 14.2362C8.80213 14.5232 8.93503 14.7892 9.13363 15.0025C9.33222 15.2158 9.58809 15.3674 9.8706 15.4391C10.1531 15.5107 10.4503 15.4995 10.7266 15.4066C11.0028 15.3137 11.2465 15.1432 11.4283 14.9155C11.6102 14.6877 11.7226 14.4123 11.752 14.1224L11.7705 13.0075V5.05813C11.771 5.03275 11.7765 5.00771 11.7867 4.98445C11.7968 4.96119 11.8115 4.94016 11.8298 4.92256C11.8481 4.90496 11.8696 4.89113 11.8933 4.88187C11.9169 4.87261 11.9421 4.8681 11.9675 4.86859H14.3423C14.3895 4.86734 14.4356 4.8838 14.4713 4.91474C14.5071 4.94568 14.53 4.98887 14.5355 5.03583C14.9072 7.85656 17.386 7.90487 17.5086 7.90487C17.534 7.90438 17.5592 7.90889 17.5829 7.91815C17.6065 7.92741 17.6281 7.94124 17.6464 7.95884C17.6647 7.97644 17.6793 7.99747 17.6895 8.02073C17.6996 8.04399 17.7051 8.06903 17.7056 8.09441V10.3614Z" fill="#8C64D8"/>
</svg>
